# xmcd
# 
# Track frame offsets:
#     150
#     27955
#     45969
#     61846
#     77364
#     93181
#     109149
# 
# Disc length: 1826
# 
# Revision: 0
# Processed by: cddbd v1.5.2PL0 Copyright (c) Steve Scherf et al.
# Submitted via: fre:ac v1.0.17
# 
DISCID=42072007
DTITLE=稲田保雄 - 感覚思考(Disc2 )
DYEAR=2013
DGENRE=Progressive Rock
TTITLE0=サンシャイン
TTITLE1=ディス･モーニング
TTITLE2=イルカのオキちゃん
TTITLE3=リトル･サンシャイン
TTITLE4=イルカのオキちゃん(カラオケver)
TTITLE5=リトル･サンシャイン(カラオケver)
TTITLE6=THE SUN (LIVE)
EXTD=
EXTT0=
EXTT1=
EXTT2=
EXTT3=
EXTT4=
EXTT5=
EXTT6=
PLAYORDER=
